<?xml version="1.0" encoding="utf-8" standalone="yes"?>
<!DOCTYPE svg PUBLIC "-//W3C//DTD SVG 1.1//EN" "http://www.w3.org/Graphics/SVG/1.1/DTD/svg11.dtd">
<svg xmlns:xlink="http://www.w3.org/1999/xlink" class="barcode-canvas" version="1.1" style="shape-rendering:crispEdges;" xmlns="http://www.w3.org/2000/svg">
  <g text-rendering="geometricPrecision">
    <rect x="0" y="0" width="213" height="201" fill="#ffffff" />
    <rect x="17" y="7" width="2" height="173" fill="#000000" />
    <rect x="21" y="7" width="2" height="173" fill="#000000" />
    <rect x="25" y="7" width="6" height="173" fill="#000000" />
    <rect x="33" y="7" width="4" height="173" fill="#000000" />
    <rect x="43" y="7" width="2" height="173" fill="#000000" />
    <rect x="49" y="7" width="2" height="173" fill="#000000" />
    <rect x="55" y="7" width="2" height="173" fill="#000000" />
    <rect x="59" y="7" width="6" height="173" fill="#000000" />
    <rect x="67" y="7" width="6" height="173" fill="#000000" />
    <rect x="75" y="7" width="4" height="173" fill="#000000" />
    <rect x="83" y="7" width="4" height="173" fill="#000000" />
    <rect x="89" y="7" width="4" height="173" fill="#000000" />
    <rect x="95" y="7" width="4" height="173" fill="#000000" />
    <rect x="101" y="7" width="6" height="173" fill="#000000" />
    <rect x="109" y="7" width="2" height="173" fill="#000000" />
    <rect x="113" y="7" width="2" height="173" fill="#000000" />
    <rect x="117" y="7" width="2" height="173" fill="#000000" />
    <rect x="127" y="7" width="2" height="173" fill="#000000" />
    <rect x="131" y="7" width="6" height="173" fill="#000000" />
    <rect x="139" y="7" width="2" height="173" fill="#000000" />
    <rect x="145" y="7" width="2" height="173" fill="#000000" />
    <rect x="149" y="7" width="6" height="173" fill="#000000" />
    <rect x="159" y="7" width="2" height="173" fill="#000000" />
    <rect x="169" y="7" width="2" height="173" fill="#000000" />
    <rect x="173" y="7" width="6" height="173" fill="#000000" />
    <rect x="183" y="7" width="2" height="173" fill="#000000" />
    <rect x="187" y="7" width="4" height="173" fill="#000000" />
    <rect x="195" y="7" width="4" height="173" fill="#000000" />
    <rect x="201" y="7" width="2" height="173" fill="#000000" />
    <rect x="205" y="7" width="2" height="173" fill="#000000" />
    <rect x="7" y="174" width="10" height="21" fill="#ffffff" />
    <g transform="translate(6, 174)">
      <path d="M 0.984375 14.71875 L 2.5 14.578125 C 2.6328125 15.296875 2.87890625 15.82421875 3.234375 16.15625 C 3.59765625 16.48046875 4.06640625 16.640625 4.640625 16.640625 C 5.12890625 16.640625 5.5546875 16.52734375 5.921875 16.296875 C 6.28515625 16.0703125 6.58203125 15.765625 6.8125 15.390625 C 7.05078125 15.0078125 7.25 14.4921875 7.40625 13.84375 C 7.5625 13.19921875 7.640625 12.5390625 7.640625 11.859375 C 7.640625 11.796875 7.640625 11.6875 7.640625 11.53125 C 7.31640625 12.0625 6.87890625 12.49609375 6.328125 12.828125 C 5.78515625 13.1640625 5.1953125 13.328125 4.5625 13.328125 C 3.5 13.328125 2.59765625 12.9140625 1.859375 12.078125 C 1.1171875 11.234375 0.75 10.12109375 0.75 8.734375 C 0.75 7.30859375 1.1328125 6.1640625 1.90625 5.296875 C 2.67578125 4.43359375 3.640625 4 4.796875 4 C 5.640625 4 6.40625 4.2421875 7.09375 4.71875 C 7.7890625 5.1875 8.31640625 5.87109375 8.671875 6.765625 C 9.03515625 7.65234375 9.21875 8.9375 9.21875 10.625 C 9.21875 12.375 9.03515625 13.7734375 8.671875 14.8125 C 8.31640625 15.84375 7.78515625 16.63671875 7.078125 17.1875 C 6.37890625 17.73046875 5.5546875 18 4.609375 18 C 3.59765625 18 2.76953125 17.71484375 2.125 17.140625 C 1.48828125 16.5703125 1.109375 15.76171875 0.984375 14.71875 M 7.46875 8.65625 C 7.46875 7.6484375 7.22265625 6.84375 6.734375 6.25 C 6.25390625 5.65625 5.67578125 5.359375 5 5.359375 C 4.2890625 5.359375 3.67578125 5.68359375 3.15625 6.328125 C 2.6328125 6.96484375 2.375 7.7890625 2.375 8.796875 C 2.375 9.703125 2.6171875 10.4453125 3.109375 11.015625 C 3.609375 11.578125 4.22265625 11.859375 4.953125 11.859375 C 5.6796875 11.859375 6.28125 11.578125 6.75 11.015625 C 7.2265625 10.4453125 7.46875 9.65625 7.46875 8.65625 M 10 18 " fill="#000000" shape-rendering="geometricPrecision" />
    </g>
    <rect x="24" y="174" width="84" height="21" fill="#ffffff" />
    <rect x="116" y="174" width="84" height="21" fill="#ffffff" />
    <g transform="translate(36, 174)">
      <path d="M 0.859375 5.59375 L 0.859375 4 L 9.1875 4 L 9.1875 5.296875 C 8.375 6.265625 7.5625 7.5546875 6.75 9.15625 C 5.9453125 10.75 5.328125 12.3984375 4.890625 14.09375 C 4.56640625 15.28125 4.36328125 16.5859375 4.28125 18 L 2.65625 18 C 2.67578125 16.875 2.875 15.5234375 3.25 13.9375 C 3.6328125 12.34375 4.1796875 10.80859375 4.890625 9.328125 C 5.59765625 7.8515625 6.3515625 6.60546875 7.15625 5.59375 M 13.1875 10.328125 C 12.53125 10.0703125 12.0390625 9.703125 11.71875 9.234375 C 11.40625 8.765625 11.25 8.19921875 11.25 7.53125 C 11.25 6.53125 11.58203125 5.6953125 12.25 5.015625 C 12.92578125 4.33984375 13.828125 4 14.953125 4 C 16.078125 4 16.9765625 4.359375 17.65625 5.078125 C 18.34375 5.796875 18.6875 6.66796875 18.6875 7.6875 C 18.6875 8.34375 18.53125 8.91796875 18.21875 9.40625 C 17.90625 9.8984375 17.4296875 10.27734375 16.796875 10.546875 C 17.5859375 10.8203125 18.1875 11.25 18.59375 11.84375 C 19.0078125 12.4296875 19.21875 13.1328125 19.21875 13.953125 C 19.21875 15.1015625 18.828125 16.0625 18.046875 16.84375 C 17.265625 17.6171875 16.23828125 18 14.96875 18 C 13.6953125 18 12.671875 17.6015625 11.890625 16.796875 C 11.1171875 15.99609375 10.734375 14.99609375 10.734375 13.796875 C 10.734375 12.90234375 10.94140625 12.15625 11.359375 11.5625 C 11.78515625 10.9609375 12.39453125 10.546875 13.1875 10.328125 M 12.859375 7.578125 C 12.859375 8.265625 13.0546875 8.828125 13.453125 9.265625 C 13.84765625 9.703125 14.359375 9.921875 14.984375 9.921875 C 15.5859375 9.921875 16.08203125 9.7109375 16.46875 9.28125 C 16.86328125 8.84375 17.0625 8.3125 17.0625 7.6875 C 17.0625 7.0234375 16.859375 6.46875 16.453125 6.03125 C 16.0546875 5.5859375 15.5625 5.359375 14.96875 5.359375 C 14.36328125 5.359375 13.859375 5.578125 13.453125 6.015625 C 13.0546875 6.453125 12.859375 6.9765625 12.859375 7.578125 M 12.359375 13.921875 C 12.359375 14.3828125 12.4609375 14.828125 12.671875 15.265625 C 12.890625 15.703125 13.20703125 16.04296875 13.625 16.28125 C 14.05078125 16.5234375 14.5078125 16.640625 15 16.640625 C 15.75 16.640625 16.3671875 16.390625 16.859375 15.890625 C 17.359375 15.390625 17.609375 14.75 17.609375 13.96875 C 17.609375 13.1875 17.3515625 12.54296875 16.84375 12.03125 C 16.33203125 11.5234375 15.6953125 11.265625 14.9375 11.265625 C 14.1953125 11.265625 13.58203125 11.5234375 13.09375 12.03125 C 12.6015625 12.53125 12.359375 13.1640625 12.359375 13.921875 M 20.984375 14.71875 L 22.5 14.578125 C 22.6328125 15.296875 22.87890625 15.82421875 23.234375 16.15625 C 23.59765625 16.48046875 24.06640625 16.640625 24.640625 16.640625 C 25.12890625 16.640625 25.5546875 16.52734375 25.921875 16.296875 C 26.28515625 16.0703125 26.58203125 15.765625 26.8125 15.390625 C 27.05078125 15.0078125 27.25 14.4921875 27.40625 13.84375 C 27.5625 13.19921875 27.640625 12.5390625 27.640625 11.859375 C 27.640625 11.796875 27.640625 11.6875 27.640625 11.53125 C 27.31640625 12.0625 26.87890625 12.49609375 26.328125 12.828125 C 25.78515625 13.1640625 25.1953125 13.328125 24.5625 13.328125 C 23.5 13.328125 22.59765625 12.9140625 21.859375 12.078125 C 21.1171875 11.234375 20.75 10.12109375 20.75 8.734375 C 20.75 7.30859375 21.1328125 6.1640625 21.90625 5.296875 C 22.67578125 4.43359375 23.640625 4 24.796875 4 C 25.640625 4 26.40625 4.2421875 27.09375 4.71875 C 27.7890625 5.1875 28.31640625 5.87109375 28.671875 6.765625 C 29.03515625 7.65234375 29.21875 8.9375 29.21875 10.625 C 29.21875 12.375 29.03515625 13.7734375 28.671875 14.8125 C 28.31640625 15.84375 27.78515625 16.63671875 27.078125 17.1875 C 26.37890625 17.73046875 25.5546875 18 24.609375 18 C 23.59765625 18 22.76953125 17.71484375 22.125 17.140625 C 21.48828125 16.5703125 21.109375 15.76171875 20.984375 14.71875 M 27.46875 8.65625 C 27.46875 7.6484375 27.22265625 6.84375 26.734375 6.25 C 26.25390625 5.65625 25.67578125 5.359375 25 5.359375 C 24.2890625 5.359375 23.67578125 5.68359375 23.15625 6.328125 C 22.6328125 6.96484375 22.375 7.7890625 22.375 8.796875 C 22.375 9.703125 22.6171875 10.4453125 23.109375 11.015625 C 23.609375 11.578125 24.22265625 11.859375 24.953125 11.859375 C 25.6796875 11.859375 26.28125 11.578125 26.75 11.015625 C 27.2265625 10.4453125 27.46875 9.65625 27.46875 8.65625 M 30.859375 5.59375 L 30.859375 4 L 39.1875 4 L 39.1875 5.296875 C 38.375 6.265625 37.5625 7.5546875 36.75 9.15625 C 35.9453125 10.75 35.328125 12.3984375 34.890625 14.09375 C 34.56640625 15.28125 34.36328125 16.5859375 34.28125 18 L 32.65625 18 C 32.67578125 16.875 32.875 15.5234375 33.25 13.9375 C 33.6328125 12.34375 34.1796875 10.80859375 34.890625 9.328125 C 35.59765625 7.8515625 36.3515625 6.60546875 37.15625 5.59375 M 49.0625 16.40625 L 49.0625 18 L 40.546875 18 C 40.53515625 17.59375 40.59765625 17.1953125 40.734375 16.796875 C 40.953125 16.171875 41.296875 15.55859375 41.765625 14.953125 C 42.2421875 14.33984375 42.9375 13.6328125 43.84375 12.828125 C 45.23828125 11.578125 46.1796875 10.58984375 46.671875 9.859375 C 47.171875 9.1328125 47.421875 8.4453125 47.421875 7.796875 C 47.421875 7.109375 47.1953125 6.53125 46.75 6.0625 C 46.30078125 5.59375 45.71875 5.359375 45 5.359375 C 44.2265625 5.359375 43.61328125 5.609375 43.15625 6.109375 C 42.70703125 6.609375 42.4765625 7.3046875 42.46875 8.1875 L 40.84375 8 C 40.95703125 6.69921875 41.375 5.7109375 42.09375 5.03125 C 42.8203125 4.34375 43.80078125 4 45.03125 4 C 46.2578125 4 47.234375 4.375 47.953125 5.125 C 48.6796875 5.8671875 49.046875 6.78125 49.046875 7.875 C 49.046875 8.4375 48.9375 8.99609375 48.71875 9.546875 C 48.5078125 10.08984375 48.16015625 10.65625 47.671875 11.25 C 47.1796875 11.84375 46.3671875 12.66796875 45.234375 13.71875 C 44.28515625 14.5859375 43.67578125 15.171875 43.40625 15.484375 C 43.1328125 15.7890625 42.9140625 16.09375 42.75 16.40625 M 53.1875 10.328125 C 52.53125 10.0703125 52.0390625 9.703125 51.71875 9.234375 C 51.40625 8.765625 51.25 8.19921875 51.25 7.53125 C 51.25 6.53125 51.58203125 5.6953125 52.25 5.015625 C 52.92578125 4.33984375 53.828125 4 54.953125 4 C 56.078125 4 56.9765625 4.359375 57.65625 5.078125 C 58.34375 5.796875 58.6875 6.66796875 58.6875 7.6875 C 58.6875 8.34375 58.53125 8.91796875 58.21875 9.40625 C 57.90625 9.8984375 57.4296875 10.27734375 56.796875 10.546875 C 57.5859375 10.8203125 58.1875 11.25 58.59375 11.84375 C 59.0078125 12.4296875 59.21875 13.1328125 59.21875 13.953125 C 59.21875 15.1015625 58.828125 16.0625 58.046875 16.84375 C 57.265625 17.6171875 56.23828125 18 54.96875 18 C 53.6953125 18 52.671875 17.6015625 51.890625 16.796875 C 51.1171875 15.99609375 50.734375 14.99609375 50.734375 13.796875 C 50.734375 12.90234375 50.94140625 12.15625 51.359375 11.5625 C 51.78515625 10.9609375 52.39453125 10.546875 53.1875 10.328125 M 52.859375 7.578125 C 52.859375 8.265625 53.0546875 8.828125 53.453125 9.265625 C 53.84765625 9.703125 54.359375 9.921875 54.984375 9.921875 C 55.5859375 9.921875 56.08203125 9.7109375 56.46875 9.28125 C 56.86328125 8.84375 57.0625 8.3125 57.0625 7.6875 C 57.0625 7.0234375 56.859375 6.46875 56.453125 6.03125 C 56.0546875 5.5859375 55.5625 5.359375 54.96875 5.359375 C 54.36328125 5.359375 53.859375 5.578125 53.453125 6.015625 C 53.0546875 6.453125 52.859375 6.9765625 52.859375 7.578125 M 52.359375 13.921875 C 52.359375 14.3828125 52.4609375 14.828125 52.671875 15.265625 C 52.890625 15.703125 53.20703125 16.04296875 53.625 16.28125 C 54.05078125 16.5234375 54.5078125 16.640625 55 16.640625 C 55.75 16.640625 56.3671875 16.390625 56.859375 15.890625 C 57.359375 15.390625 57.609375 14.75 57.609375 13.96875 C 57.609375 13.1875 57.3515625 12.54296875 56.84375 12.03125 C 56.33203125 11.5234375 55.6953125 11.265625 54.9375 11.265625 C 54.1953125 11.265625 53.58203125 11.5234375 53.09375 12.03125 C 52.6015625 12.53125 52.359375 13.1640625 52.359375 13.921875 M 60 18 " fill="#000000" shape-rendering="geometricPrecision" />
    </g>
    <g transform="translate(128, 174)">
      <path d="M 0.75 14.21875 L 2.34375 14 C 2.51953125 14.9296875 2.828125 15.6015625 3.265625 16.015625 C 3.703125 16.43359375 4.234375 16.640625 4.859375 16.640625 C 5.609375 16.640625 6.23828125 16.375 6.75 15.84375 C 7.2578125 15.3046875 7.515625 14.6328125 7.515625 13.828125 C 7.515625 13.0703125 7.2734375 12.4453125 6.796875 11.953125 C 6.328125 11.46484375 5.7265625 11.21875 5 11.21875 C 4.6953125 11.21875 4.3203125 11.28125 3.875 11.40625 L 4.046875 9.953125 C 4.1484375 9.96484375 4.23828125 9.96875 4.3125 9.96875 C 4.9765625 9.96875 5.58203125 9.77734375 6.125 9.390625 C 6.6640625 8.99609375 6.9375 8.3984375 6.9375 7.59375 C 6.9375 6.9375 6.73828125 6.40234375 6.34375 5.984375 C 5.9453125 5.5703125 5.44140625 5.359375 4.828125 5.359375 C 4.2109375 5.359375 3.6953125 5.578125 3.28125 6.015625 C 2.875 6.4453125 2.61328125 7.078125 2.5 7.921875 L 0.921875 7.609375 C 1.109375 6.46484375 1.546875 5.578125 2.234375 4.953125 C 2.921875 4.3203125 3.7734375 4 4.796875 4 C 5.4921875 4 6.140625 4.1640625 6.734375 4.484375 C 7.328125 4.80859375 7.78125 5.2578125 8.09375 5.828125 C 8.40625 6.40234375 8.5625 7.0078125 8.5625 7.640625 C 8.5625 8.24609375 8.41015625 8.796875 8.109375 9.296875 C 7.81640625 9.796875 7.375 10.1953125 6.78125 10.484375 C 7.5390625 10.671875 8.12890625 11.0546875 8.546875 11.625 C 8.97265625 12.19921875 9.1875 12.921875 9.1875 13.796875 C 9.1875 14.9765625 8.7734375 15.96875 7.953125 16.78125 C 7.140625 17.59375 6.109375 18 4.859375 18 C 3.72265625 18 2.78125 17.65234375 2.03125 16.953125 C 1.2890625 16.2578125 0.86328125 15.34375 0.75 14.21875 M 10.984375 14.71875 L 12.5 14.578125 C 12.6328125 15.296875 12.87890625 15.82421875 13.234375 16.15625 C 13.59765625 16.48046875 14.06640625 16.640625 14.640625 16.640625 C 15.12890625 16.640625 15.5546875 16.52734375 15.921875 16.296875 C 16.28515625 16.0703125 16.58203125 15.765625 16.8125 15.390625 C 17.05078125 15.0078125 17.25 14.4921875 17.40625 13.84375 C 17.5625 13.19921875 17.640625 12.5390625 17.640625 11.859375 C 17.640625 11.796875 17.640625 11.6875 17.640625 11.53125 C 17.31640625 12.0625 16.87890625 12.49609375 16.328125 12.828125 C 15.78515625 13.1640625 15.1953125 13.328125 14.5625 13.328125 C 13.5 13.328125 12.59765625 12.9140625 11.859375 12.078125 C 11.1171875 11.234375 10.75 10.12109375 10.75 8.734375 C 10.75 7.30859375 11.1328125 6.1640625 11.90625 5.296875 C 12.67578125 4.43359375 13.640625 4 14.796875 4 C 15.640625 4 16.40625 4.2421875 17.09375 4.71875 C 17.7890625 5.1875 18.31640625 5.87109375 18.671875 6.765625 C 19.03515625 7.65234375 19.21875 8.9375 19.21875 10.625 C 19.21875 12.375 19.03515625 13.7734375 18.671875 14.8125 C 18.31640625 15.84375 17.78515625 16.63671875 17.078125 17.1875 C 16.37890625 17.73046875 15.5546875 18 14.609375 18 C 13.59765625 18 12.76953125 17.71484375 12.125 17.140625 C 11.48828125 16.5703125 11.109375 15.76171875 10.984375 14.71875 M 17.46875 8.65625 C 17.46875 7.6484375 17.22265625 6.84375 16.734375 6.25 C 16.25390625 5.65625 15.67578125 5.359375 15 5.359375 C 14.2890625 5.359375 13.67578125 5.68359375 13.15625 6.328125 C 12.6328125 6.96484375 12.375 7.7890625 12.375 8.796875 C 12.375 9.703125 12.6171875 10.4453125 13.109375 11.015625 C 13.609375 11.578125 14.22265625 11.859375 14.953125 11.859375 C 15.6796875 11.859375 16.28125 11.578125 16.75 11.015625 C 17.2265625 10.4453125 17.46875 9.65625 17.46875 8.65625 M 25.8125 18 L 25.8125 15 L 20.234375 15 L 20.234375 13.484375 L 26.109375 4 L 27.40625 4 L 27.40625 13.484375 L 29.140625 13.484375 L 29.140625 15 L 27.40625 15 L 27.40625 18 M 25.8125 13.484375 L 25.8125 6.890625 L 21.78125 13.484375 M 30.75 14.21875 L 32.34375 14 C 32.51953125 14.9296875 32.828125 15.6015625 33.265625 16.015625 C 33.703125 16.43359375 34.234375 16.640625 34.859375 16.640625 C 35.609375 16.640625 36.23828125 16.375 36.75 15.84375 C 37.2578125 15.3046875 37.515625 14.6328125 37.515625 13.828125 C 37.515625 13.0703125 37.2734375 12.4453125 36.796875 11.953125 C 36.328125 11.46484375 35.7265625 11.21875 35 11.21875 C 34.6953125 11.21875 34.3203125 11.28125 33.875 11.40625 L 34.046875 9.953125 C 34.1484375 9.96484375 34.23828125 9.96875 34.3125 9.96875 C 34.9765625 9.96875 35.58203125 9.77734375 36.125 9.390625 C 36.6640625 8.99609375 36.9375 8.3984375 36.9375 7.59375 C 36.9375 6.9375 36.73828125 6.40234375 36.34375 5.984375 C 35.9453125 5.5703125 35.44140625 5.359375 34.828125 5.359375 C 34.2109375 5.359375 33.6953125 5.578125 33.28125 6.015625 C 32.875 6.4453125 32.61328125 7.078125 32.5 7.921875 L 30.921875 7.609375 C 31.109375 6.46484375 31.546875 5.578125 32.234375 4.953125 C 32.921875 4.3203125 33.7734375 4 34.796875 4 C 35.4921875 4 36.140625 4.1640625 36.734375 4.484375 C 37.328125 4.80859375 37.78125 5.2578125 38.09375 5.828125 C 38.40625 6.40234375 38.5625 7.0078125 38.5625 7.640625 C 38.5625 8.24609375 38.41015625 8.796875 38.109375 9.296875 C 37.81640625 9.796875 37.375 10.1953125 36.78125 10.484375 C 37.5390625 10.671875 38.12890625 11.0546875 38.546875 11.625 C 38.97265625 12.19921875 39.1875 12.921875 39.1875 13.796875 C 39.1875 14.9765625 38.7734375 15.96875 37.953125 16.78125 C 37.140625 17.59375 36.109375 18 34.859375 18 C 33.72265625 18 32.78125 17.65234375 32.03125 16.953125 C 31.2890625 16.2578125 30.86328125 15.34375 30.75 14.21875 M 40.75 11 C 40.75 9.38671875 40.90625 8.0859375 41.21875 7.09375 C 41.53125 6.10546875 41.9921875 5.34375 42.609375 4.8125 C 43.234375 4.2734375 44.015625 4 44.953125 4 C 45.640625 4 46.2421875 4.15234375 46.765625 4.453125 C 47.28515625 4.74609375 47.7109375 5.171875 48.046875 5.734375 C 48.390625 6.2890625 48.66015625 6.96484375 48.859375 7.765625 C 49.0546875 8.5703125 49.15625 9.6484375 49.15625 11 C 49.15625 12.60546875 49 13.90234375 48.6875 14.890625 C 48.375 15.8828125 47.90625 16.6484375 47.28125 17.1875 C 46.6640625 17.73046875 45.890625 18 44.953125 18 C 43.703125 18 42.72265625 17.52734375 42.015625 16.578125 C 41.171875 15.43359375 40.75 13.57421875 40.75 11 M 42.375 11 C 42.375 13.26171875 42.6171875 14.765625 43.109375 15.515625 C 43.609375 16.265625 44.22265625 16.640625 44.953125 16.640625 C 45.671875 16.640625 46.28125 16.265625 46.78125 15.515625 C 47.28125 14.7578125 47.53125 13.25 47.53125 11 C 47.53125 8.7421875 47.28125 7.234375 46.78125 6.484375 C 46.28125 5.734375 45.6640625 5.359375 44.9375 5.359375 C 44.20703125 5.359375 43.625 5.6875 43.1875 6.34375 C 42.64453125 7.1875 42.375 8.7421875 42.375 11 M 56.703125 18 L 55.125 18 L 55.125 7.09375 C 54.73828125 7.4921875 54.23828125 7.88671875 53.625 8.28125 C 53.0078125 8.66796875 52.453125 8.9609375 51.953125 9.15625 L 51.953125 7.5 C 52.8359375 7.0546875 53.61328125 6.51171875 54.28125 5.875 C 54.9453125 5.23046875 55.4140625 4.60546875 55.6875 4 L 56.703125 4 M 60 18 " fill="#000000" shape-rendering="geometricPrecision" />
    </g>
  </g>
</svg>